<?xml version="1.0" encoding="UTF-8" standalone="no"?>
<svg
   xmlns:dc="http://purl.org/dc/elements/1.1/"
   xmlns:cc="http://creativecommons.org/ns#"
   xmlns:rdf="http://www.w3.org/1999/02/22-rdf-syntax-ns#"
   xmlns:svg="http://www.w3.org/2000/svg"
   xmlns="http://www.w3.org/2000/svg"
   xmlns:sodipodi="http://sodipodi.sourceforge.net/DTD/sodipodi-0.dtd"
   xmlns:inkscape="http://www.inkscape.org/namespaces/inkscape"
   viewBox="0 0 809.34 956.15"
   version="1.1"
   id="svg184"
   sodipodi:docname="drawkit-grape-pack-illustration-13.svg"
   inkscape:version="1.0.1 (3bc2e813f5, 2020-09-07)">
  <metadata
     id="metadata188">
    <rdf:RDF>
      <cc:Work
         rdf:about="">
        <dc:format>image/svg+xml</dc:format>
        <dc:type
           rdf:resource="http://purl.org/dc/dcmitype/StillImage" />
      </cc:Work>
    </rdf:RDF>
  </metadata>
  <sodipodi:namedview
     pagecolor="#ffffff"
     bordercolor="#666666"
     borderopacity="1"
     objecttolerance="10"
     gridtolerance="10"
     guidetolerance="10"
     inkscape:pageopacity="0"
     inkscape:pageshadow="2"
     inkscape:window-width="1920"
     inkscape:window-height="1017"
     id="namedview186"
     showgrid="false"
     inkscape:zoom="0.88898185"
     inkscape:cx="-123.84949"
     inkscape:cy="559.44669"
     inkscape:window-x="-8"
     inkscape:window-y="-8"
     inkscape:window-maximized="1"
     inkscape:current-layer="vector" />
  <defs
     id="defs102">
    <style
       id="style100">.cls-1{fill:#f0f0f0;}.cls-2,.cls-4{fill:none;stroke-linecap:round;stroke-linejoin:round;stroke-width:4.78px;}.cls-2{stroke:#b6c6fc;}.cls-3{fill:#fb5d64;}.cls-4{stroke:#1b3c87;}.cls-5{fill:#004b8d;}.cls-6{fill:#eaefff;fill-rule:evenodd;}.cls-7{fill:#fff;}.cls-8{fill:#1b3c87;}</style>
  </defs>
  <title
     id="title104">drawkit-grape-pack-illustration-13</title>
  <g
     id="Layer_2"
     data-name="Layer 2">
    <g
       id="vector"
       inkscape:transform-center-x="-25.872293"
       inkscape:transform-center-y="-29.246989">
      <path
         class="cls-1"
         d="m 244.01201,291 c -85.12,68.63 -190.480001,115.4 -227.940001,194.07 -37.27,78.67 -6.4500001,188.87 58.78,258.4 65.230001,69.35 164.680001,98 257.000001,120.06 92.29,22.23 177.22,37.82 234,4.84 56.81,-33.15 85.48,-115 127.77,-188.87 42.29,-73.64 98.38,-139.41 111.1,-219.86 12.72,-80.64 -17.92,-176.33 -82.79,-248.37 -65.05,-72.22 -164.5,-121 -246.57,-100.17 -81.9,20.78 -146.41,111.28 -231.35,179.9 z"
         id="path106" />
      <polygon
         class="cls-2"
         points="542.3,456.28 726.53,277.44 786.39,414.73 "
         id="polygon108"
         transform="matrix(-1,0,0,1,809.34201,0)" />
      <path
         class="cls-3"
         d="m 296.15201,461 c 0,-102.85 2,-206.33 138.11,-206.33 124.25,0 134.8,142.9 135.43,194.21 0.63,52.07 17,82.28 37.37,105.58 v 246.8 c -67.33,60.91 -158.13,120 -201.94,120 -39.83,0 -113.73,-27.93 -173.83,-62.3 V 612.61 c 34.31,-40.39 64.86,-86.38 64.86,-151.61 z"
         id="path110" />
      <path
         class="cls-4"
         d="m 696.64201,675.33 c -5.22,-111.17 -118.26,-94.68 -120,-233.42 -0.28,-22.4 -2.44,-62.25 -15.13,-100.05"
         id="path112" />
      <path
         class="cls-4"
         d="m 155.08201,787.47 c 41.76,55.07 193.17,126.85 257,126.85 50.88,0 165.13,-79.74 232.41,-149.41"
         id="path114" />
      <path
         class="cls-4"
         d="m 247.55201,594.43 c -39.73,49.39 -88.21,89.11 -100.42,142.07"
         id="path116" />
      <path
         class="cls-4"
         d="m 522.56201,277.43 c -19.38,-18 -45.66,-29.73 -81.3,-29.73 -136.13,0 -138.11,103.48 -138.11,206.33 0,44 -13.94,79.32 -33.56,110"
         id="path118" />
      <path
         class="cls-5"
         d="m 607.06201,871.64 a -59,59 0 0 1 -58.84,58.85 h -258.09 a -59,59 0 0 1 -58.84,-58.85 V 747.5 c 44,-82.24 114.87,-135.62 194.81,-135.62 72,0 136.68,43.34 181,112.07 z"
         id="path120" />
      <path
         class="cls-6"
         d="m 809.34201,789.46 a -64.41,64.41 0 1 0 -64.41,64.41 -64.42,64.42 0 0 0 64.41,-64.41 z"
         id="path122" />
      <rect
         class="cls-2"
         x="74.629997"
         y="43.689999"
         width="182.84"
         height="160.86"
         transform="rotate(-49.93,166.07108,124.12445)"
         id="rect124" />
      <path
         class="cls-4"
         d="m 246.05201,726.06 q -7.86,13 -14.76,27.13"
         id="path126" />
      <path
         class="cls-4"
         d="m 518.62201,627.81 c -26.86,-14.16 -56,-21.93 -86.52,-21.93 -55.36,0 -106.36,25.59 -147.11,68.63"
         id="path128" />
      <path
         class="cls-4"
         d="m 607.06201,708.94 a -278.32,278.32 0 0 0 -47.72,-53.28"
         id="path130" />
      <path
         class="cls-4"
         d="m 210.34201,890 a -64,64 0 0 0 63.79,63.79 h 290 a -64,64 0 0 0 63.85,-63.79 V 410.69"
         id="path132" />
      <path
         class="cls-4"
         d="M 627.98201,295 V 160.31 a -64,64 0 0 0 -63.79,-63.79 h -290 a -64,64 0 0 0 -63.85,63.79 v 585.07"
         id="path134" />
      <path
         class="cls-4"
         d="m 586.86201,915.93 a -58.77,58.77 0 0 0 20.2,-44.29 v -693 a -59,59 0 0 0 -58.84,-58.85 h -185.64"
         id="path136" />
      <path
         class="cls-4"
         d="m 272.05201,122.65 a -59.08,59.08 0 0 0 -40.76,56 v 693 a -59,59 0 0 0 58.84,58.85 h 176.61"
         id="path138" />
      <path
         class="cls-4"
         d="m 311.27201,119.79 a -22.45,22.45 0 0 0 -1.39,7.79 v 1.23 a -22.73,22.73 0 0 0 22.66,22.66 h 156.94"
         id="path140" />
      <line
         class="cls-4"
         x1="508.15201"
         y1="905.23999"
         x2="330.21201"
         y2="905.23999"
         id="line142" />
      <path
         class="cls-7"
         d="m 499.04201,529.43 c -4,23 -6.26,87.12 -2.89,120.52 -12.82,10.8 -69.15,20.58 -106.6,6.07 5.06,-18.55 7.76,-62.74 3.37,-89.73 23.96,-8.77 106.12,-36.86 106.12,-36.86 z"
         id="path144" />
      <path
         class="cls-4"
         d="m 499.53201,598.15 c -0.11,17.4 0.36,34.26 1.62,46.8 -7.71,6.5 -31.21,12.63 -56.85,13.32"
         id="path146" />
      <path
         class="cls-4"
         d="m 394.55201,651 c 5.06,-18.55 7.76,-62.74 3.37,-89.73 24,-8.77 106.12,-36.86 106.12,-36.86 -1.54,8.89 -2.83,23.91 -3.63,40.93"
         id="path148" />
      <ellipse
         class="cls-7"
         cx="-418.54202"
         cy="432.42999"
         rx="112.5"
         ry="150"
         id="ellipse150"
         transform="scale(-1,1)" />
      <path
         class="cls-4"
         d="m 331.22201,507.22 c 20.07,41.07 54.82,68.21 94.32,68.21 a -86,86 0 0 0 26.4,-4.15"
         id="path152" />
      <path
         class="cls-4"
         d="m 528.89201,484.79 a -193.1,193.1 0 0 0 9.15,-59.36 c 0,-82.84 -50.36,-150 -112.5,-150 -62.14,0 -112.5,67.16 -112.5,150 a -195.82,195.82 0 0 0 5.72,47.34"
         id="path154" />
      <ellipse
         class="cls-8"
         cx="-358.91202"
         cy="433.32001"
         rx="6.3699999"
         ry="14.29"
         id="ellipse156"
         transform="scale(-1,1)" />
      <path
         class="cls-4"
         d="m 394.34201,456.28 c -2.65,10.68 -7.55,22.52 -16,30"
         id="path158" />
      <path
         class="cls-4"
         d="m 397.02201,436.59 a -63.75,63.75 0 0 1 -0.38,6.54"
         id="path160" />
      <path
         class="cls-3"
         d="m 394.02201,314.25 a -8,8 0 0 1 -0.41,1.55 c -5.56,16.5 -63.43,121 -90.24,139.68 -0.95,-16.34 -2.54,-83.54 7.92,-102.56 10.46,-19.02 53.89,-69.1 67.52,-69.1 13.63,0 15.17,30.79 15.17,30.79"
         id="path164" />
      <path
         class="cls-4"
         d="m 333.98201,422.1 a -205.75,205.75 0 0 1 -16.05,19.72"
         id="path166" />
      <path
         class="cls-4"
         d="m 400.02201,308.25 a -8,8 0 0 1 -0.41,1.55 c -3.51,10.4 -27.81,55.78 -52,92.58"
         id="path168" />
      <path
         class="cls-3"
         d="m 367.50201,282.44 c 0,10 91.24,182.94 137.78,207.12 19.16,12.77 56.06,17.33 56.06,7.3 0,-10.03 -17.79,-182 -55.66,-201.65 -37.87,-19.65 -93.47,-42.43 -138.18,-12.77 z"
         id="path170" />
      <path
         class="cls-4"
         d="m 414.60201,359.92 c 30.14,51.82 69.81,111.2 95.68,124.64 8.43,5.62 20.32,9.65 31,11.55"
         id="path172" />
      <path
         class="cls-4"
         d="m 372.50201,277.44 c 0,2.6 6.12,16.11 16,35.14"
         id="path174" />
      <circle
         class="cls-7"
         cx="-518.35199"
         cy="483.35001"
         r="28.870001"
         id="circle176"
         transform="scale(-1,1)" />
      <path
         class="cls-4"
         d="m 535.03201,451.94 a -28.91,28.91 0 0 0 -27.82,2.47"
         id="path178" />
      <path
         class="cls-4"
         d="m 515.17201,506.05 a -28.9,28.9 0 0 0 36,-35.34"
         id="path180" />
      <path
         class="cls-4"
         d="m 401.80621,528.99482 c 10.68,-2.65001 22.52001,-7.54999 30,-16"
         id="path158-8"
         style="fill:none;stroke:#1b3c87;stroke-width:4.78px;stroke-linecap:round;stroke-linejoin:round" />
    </g>
  </g>
</svg>
